<mxfile host="app.diagrams.net" modified="2023-10-22T19:27:41.094Z" agent="Mozilla/5.0 (Windows NT 10.0; Win64; x64) AppleWebKit/537.36 (KHTML, like Gecko) Chrome/116.0.0.0 Safari/537.36 OPR/102.0.0.0" version="22.0.6" etag="nLYVOSOCs4IC3rOwX3Ae" type="github">
  <diagram name="PÃ¡gina-1" id="fzb3EYPNh8oV1zhCnx-8">
    <mxGraphModel>
      <root>
        <mxCell id="0" />
        <mxCell id="1" parent="0" />
      </root>
    </mxGraphModel>
  </diagram>
</mxfile>
